<svg xmlns="http://www.w3.org/2000/svg" viewBox="0 0 24 24" role="img" aria-label="Google">
  <path fill="#4285F4" d="M23.49 12.27c0-.79-.07-1.55-.2-2.27H12v4.51h6.47a5.53 5.53 0 0 1-2.4 3.52v2.93h3.88c2.27-2.09 3.54-5.17 3.54-8.69z"/>
  <path fill="#34A853" d="M12 24c3.24 0 5.95-1.07 7.93-2.9l-3.88-2.93c-1.07.72-2.44 1.15-4.05 1.15-3.12 0-5.76-2.1-6.7-4.92H1.3v3.02A12 12 0 0 0 12 24z"/>
  <path fill="#FBBC05" d="M5.3 14.4A7.2 7.2 0 0 1 4.92 12c0-.83.14-1.64.38-2.4V6.58H1.3A12 12 0 0 0 0 12c0 1.93.46 3.75 1.3 5.42l4-3.02z"/>
  <path fill="#EA4335" d="M12 4.68c1.76 0 3.33.6 4.57 1.78L20 3.03A11.46 11.46 0 0 0 12 0 12 12 0 0 0 1.3 6.58l4 3.02C6.24 6.78 8.88 4.68 12 4.68z"/>
</svg>
